Coordinates
version=1
nRows=13
nColumns=36
inDegrees=yes

Units are S.I. units (second, meters, Newtons, ...)
If the header above contains a line with 'inDegrees', this indicates whether rotational values are in degrees (yes) or radians (no).

endheader
time	pelvis_tilt	pelvis_list	pelvis_rotation	pelvis_tx	pelvis_ty	pelvis_tz	hip_flexion_r	hip_adduction_r	hip_rotation_r	knee_angle_r	knee_angle_r_beta	ankle_angle_r	subtalar_angle_r	mtp_angle_r	hip_flexion_l	hip_adduction_l	hip_rotation_l	knee_angle_l	knee_angle_l_beta	ankle_angle_l	subtalar_angle_l	mtp_angle_l	lumbar_extension	lumbar_bending	lumbar_rotation	arm_flex_r	arm_add_r	arm_rot_r	elbow_flex_r	pro_sup_r	arm_flex_l	arm_add_l	arm_rot_l	elbow_flex_l	pro_sup_l
      7.12000000	     -6.85706386	     -2.37450060	     -0.70535360	     -0.27819755	      0.96020615	     -0.67988164	     12.43138880	     -5.34456336	     -3.93792105	      5.31774882	      0.09281223	     -1.17729995	     -6.41402670	     -7.49999987	     15.14147223	     -9.79789435	    -11.19137524	      9.68575065	      0.16904824	      3.25639021	      1.72999093	     -7.49999987	     -4.84525578	      0.01562045	     -2.58718617	     -2.35790075	     -9.65884743	      7.11651214	    113.33209672	     99.70605362	    -10.52799670	     -5.53323521	     -5.42526758	    123.53859944	    104.98793428
      7.13000000	     -6.81381022	     -2.39186058	     -0.68439259	     -0.27794479	      0.96005276	     -0.67985790	     12.38092108	     -5.36177969	     -4.29835758	      5.36303168	      0.09360256	     -0.74290704	     -5.61375985	     -7.49999987	     15.06832993	     -9.81320798	    -11.11383947	      9.64729812	      0.16837712	      3.15175272	      1.56352344	     -7.49999987	     -4.93179444	     -0.02155439	     -2.50549076	     -2.42913235	     -9.63690636	      7.00587039	    113.53232715	     96.44969367	    -10.47524253	     -5.43983118	     -5.21522159	    123.62989549	    101.56273929
      7.14000000	     -7.12890410	     -2.42673989	     -0.66120831	     -0.27780596	      0.95945273	     -0.67982754	     12.72873506	     -5.33253912	     -4.41413447	      5.41801962	      0.09456228	     -0.58212269	     -5.53413361	     -7.49999987	     15.46234685	     -9.86246854	    -11.07378511	      9.72915903	      0.16980586	      3.17884852	      1.43286939	     -7.49999987	     -4.53076028	     -0.03092128	     -2.50571571	     -2.53158859	     -9.61809326	      6.89313683	    113.34673452	     95.93585204	    -10.56348138	     -5.29882921	     -5.23066721	    123.39114912	    101.10724844
      7.15000000	     -7.10338783	     -2.48145367	     -0.67456788	     -0.27782978	      0.95938409	     -0.67969350	     12.74852396	     -5.28538007	     -4.59834712	      5.49843653	      0.09596582	     -0.57595362	     -5.42599836	     -7.49999987	     15.49274779	     -9.98177185	    -11.28432366	      9.86159930	      0.17211738	      3.44409051	      1.87939494	     -7.49999987	     -4.69518337	     -0.00212425	     -2.52651048	     -2.41576011	     -9.53724649	      6.49178249	    112.94712817	    101.67436586	    -10.48040913	     -5.03656217	     -5.88399055	    122.70800700	    106.41353896
      7.16000000	     -7.11335479	     -2.50957037	     -0.64773349	     -0.27788213	      0.95935706	     -0.67962708	     12.80428108	     -5.29717342	     -4.98834924	      5.57823762	      0.09735861	     -0.43277062	     -4.88548408	     -7.49999987	     15.51704290	    -10.02362693	    -11.34907452	      9.85045404	      0.17192286	      3.35321906	      1.92293388	     -7.49999987	     -4.79499975	      0.00643062	     -2.49374969	     -2.40753163	     -9.48343417	      6.45933291	    113.18435559	     98.35599498	    -10.34166300	     -4.89842525	     -5.78607440	    122.83343869	    103.31224567
      7.17000000	     -7.17625526	     -2.50445452	     -0.68358163	     -0.27803955	      0.95926825	     -0.67945317	     12.94705618	     -5.31121756	     -5.00414497	      5.69059148	      0.09931956	     -0.42257948	     -4.84851450	     -7.49999987	     15.62931583	    -10.09477219	    -11.80783724	      9.93974643	      0.17348130	      3.57052513	      2.56490340	     -7.49999987	     -4.84854563	     -0.03623158	     -2.40752366	     -2.38952443	     -9.38749766	      6.13560880	    112.96174478	    101.35812456	    -10.17814958	     -4.78543384	     -6.06263484	    122.39895236	    106.33750393
      7.18000000	     -7.17468765	     -2.47751296	     -0.62825109	     -0.27820052	      0.95934318	     -0.67945214	     13.00231765	     -5.38351264	     -5.41856309	      5.78849848	      0.10102836	     -0.29311488	     -4.37078376	     -7.49999987	     15.64274857	    -10.07695144	    -11.98717272	      9.91531381	      0.17305487	      3.59692257	      2.78048300	     -7.49999987	     -4.96196297	     -0.08802146	     -2.49576736	     -2.27119776	     -9.29152815	      6.07038081	    112.91836592	    101.43635803	    -10.06548846	     -4.72241588	     -6.18368227	    122.33258200	    106.28467463
      7.19000000	     -7.18589167	     -2.46062875	     -0.59959539	     -0.27839342	      0.95941197	     -0.67940926	     13.05762072	     -5.41972266	     -5.63781011	      5.84693237	      0.10204822	     -0.18814541	     -4.18839351	     -7.49999987	     15.61807307	    -10.06310360	    -12.06435430	      9.79854471	      0.17101687	      3.47605952	      2.88000048	     -7.49999987	     -5.05732648	     -0.13117844	     -2.50811224	     -2.19612935	     -9.21997830	      5.93129671	    112.95091343	    100.75262609	     -9.89883142	     -4.70006692	     -6.17170454	    122.36912488	    105.63808727
      7.20000000	     -7.20385037	     -2.42809870	     -0.57877713	     -0.27866338	      0.95947520	     -0.67933785	     13.12095151	     -5.46919459	     -5.81512968	      5.89376004	      0.10286552	     -0.11171670	     -3.92585206	     -7.49999987	     15.58263862	    -10.02360250	    -12.10579845	      9.63608808	      0.16818146	      3.38040664	      3.00135114	     -7.49999987	     -5.14468074	     -0.19518178	     -2.51493724	     -2.13064891	     -9.15384267	      5.85966812	    113.05499483	     99.78385969	     -9.71047598	     -4.68288408	     -6.13155082	    122.48215847	    104.68106151
      7.21000000	     -7.28603548	     -2.38682833	     -0.57606080	     -0.27897212	      0.95943538	     -0.67924367	     13.26149425	     -5.52080984	     -5.89774197	      5.94541390	      0.10376705	     -0.10110444	     -3.81078085	     -7.49999987	     15.61717266	     -9.96704859	    -12.11989599	      9.48658665	      0.16557217	      3.27674295	      3.03208075	     -7.49999987	     -5.15018311	     -0.26612009	     -2.49651790	     -2.05257797	     -9.12767616	      5.80246128	    113.16271745	     99.14399943	     -9.56134802	     -4.67242627	     -6.09565229	    122.60086654	    104.22626066
      7.22000000	     -7.34597503	     -2.33045006	     -0.59728270	     -0.27924873	      0.95945505	     -0.67906684	     13.38260350	     -5.57468787	     -5.98894483	      6.00139119	      0.10474404	     -0.03629284	     -3.66417153	     -7.49999987	     15.64288678	     -9.94806565	    -12.54123478	      9.38419826	      0.16378516	      3.39559149	      3.66136047	     -7.49999987	     -5.14209766	     -0.35271046	     -2.50376215	     -1.90718486	     -9.09593283	      5.69968162	    112.92515743	    101.44995075	     -9.43247076	     -4.71338626	     -6.21123469	    122.44808383	    106.03754365
      7.23000000	     -7.47547165	     -2.29435538	     -0.57699956	     -0.27957583	      0.95936392	     -0.67895364	     13.56457337	     -5.60874024	     -6.05356393	      6.05256711	      0.10563722	      0.05638785	     -3.54105129	     -7.49999987	     15.72857079	     -9.88634336	    -12.46286597	      9.22202876	      0.16095477	      3.27973805	      3.61183800	     -7.49999987	     -5.07197258	     -0.41091843	     -2.51577760	     -1.85183402	     -9.09603402	      5.70953010	    113.07014366	    100.51965600	     -9.31220466	     -4.82825005	     -6.04440264	    122.64608203	    105.15444291
      7.24000000	     -7.64511029	     -2.25243516	     -0.58494418	     -0.27989678	      0.95918609	     -0.67876972	     13.79418017	     -5.63425371	     -5.98835923	      6.10351021	      0.10652635	      0.10340953	     -3.57823152	     -7.49999987	     15.83876922	     -9.82152206	    -12.38390191	      9.03729281	      0.15773052	      3.14272551	      3.53023969	     -7.49999987	     -4.93779988	     -0.48018664	     -2.51162798	     -1.78964192	     -9.11241574	      5.73701416	    113.20988619	     99.71927217	     -9.18166901	     -4.93511013	     -5.93395969	    122.80855308	    104.47120032
